<svg xmlns="http://www.w3.org/2000/svg" version="1.1" xmlns:xlink="http://www.w3.org/1999/xlink" viewBox="0 0 21.351107399087777 6.422693921921094"><g transform="matrix(0.7350994094958793,0,0,0.7350994094958793,9.310995873334363,2.4914962698403977)"><rect width="23.665590842505182" height="23.665590842505182" x="-9.976505226236219" y="-10.85353917125259" fill="#ffffff"></rect><g transform="matrix(1,0,0,1,0,0)" clip-path="url(#SvgjsClipPath6557)"><g clip-path="url(#af61b17c3-ae9d-431f-9e64-71d944bf50744dbb1636-212d-4d52-979f-d47183e2a67f)"><path d=" M -2.1702647778334194 1.2084841537809612 L -2.1702647778334194 2.3721320667489483 C -2.1702647778334194 3.253771296752809 -5.900617700764328 3.253771296752809 -5.900617700764328 2.3721320667489483 L -5.900617700764328 1.2084841537809612 L -4.031010891409407 1.975445532645936 Z M -4.031010891409407 -1.0748489892518438 L -7.6620217828188135 0.3179842279981673 L -6.840021851327004 0.6529866876401444 L -6.840021851327004 1.428808762284052 C -6.82195966377764 1.420118464500867 -6.803897476228276 1.420118464500867 -6.7858352886789115 1.420118464500867 C -6.767773101129547 1.420118464500867 -6.749710913580184 1.420118464500867 -6.731648726030819 1.428808762284052 L -6.731648726030819 0.6971197685390622 L -4.031010891409407 1.8168049986038803 L -0.40000000000000036 0.3179842279981673 Z M -6.794866382453594 2.063711694443771 C -6.876146226425732 2.063711694443771 -6.9574260703978705 2.0371296071069716 -7.011612633045962 1.984306228424869 L -7.119985758342145 2.689583532828808 C -7.119985758342145 2.715995222169859 -7.0567681019193715 2.7337166137277253 -6.975488257947234 2.751267607289843 C -6.966457164172551 2.715995222169859 -6.95742607039787 2.6720325392666906 -6.95742607039787 2.6367601541467054 L -6.95742607039787 2.751267607289843 C -6.867115132651049 2.7601283030687767 -6.749710913580183 2.7601283030687767 -6.6503688820586815 2.751267607289843 C -6.641337788283999 2.6720325392666906 -6.632306694509317 2.5926270732477876 -6.632306694509317 2.513221607228886 C -6.614244506959953 2.5926270732477876 -6.605213413185272 2.6631718434877567 -6.605213413185272 2.7425773095066592 C -6.523933569213134 2.7337166137277253 -6.469747006565042 2.715995222169859 -6.469747006565042 2.6807228370498746 L -6.578120131861225 1.975445532645936 C -6.635266171867687 2.033258223449906 -6.713589716185376 2.0651541322207887 -6.794866382453592 2.063711694443771 M -6.794866382453593 2.0107179177659202 C -6.641337788283998 2.0107179177659202 -6.523933569213133 1.8962104646227824 -6.523933569213133 1.7462602283639117 C -6.523933569213133 1.596309992105041 -6.641337788283998 1.4818025389619032 -6.794866382453593 1.4818025389619032 C -6.948394976623186 1.4818025389619032 -7.065799195694053 1.596309992105041 -7.065799195694053 1.7462602283639117 C -7.065799195694053 1.8962104646227824 -6.948394976623186 2.0107179177659202 -6.794866382453593 2.0107179177659202" fill="#000000" transform="matrix(1,0,0,1,0,0)" fill-rule="nonzero"></path></g></g><g><path d=" M 0.5565 1.0799999999999996 Q 0.429 1.0799999999999996 0.3375 1.0379999999999998 Q 0.246 0.9959999999999998 0.18825 0.9224999999999998 Q 0.1305 0.8489999999999998 0.10350000000000001 0.7537499999999997 Q 0.0765 0.6584999999999996 0.0765 0.5534999999999998 L 0.0765 0.005999999999999783 L 0.369 0.005999999999999783 L 0.369 0.5534999999999998 Q 0.369 0.6059999999999997 0.3795 0.6539999999999997 Q 0.39 0.7019999999999997 0.41250000000000003 0.7394999999999997 Q 0.435 0.7769999999999997 0.47025 0.7987499999999997 Q 0.5055000000000001 0.8204999999999998 0.5565 0.8204999999999998 Q 0.609 0.8204999999999998 0.645 0.7987499999999997 Q 0.681 0.7769999999999997 0.70275 0.7387499999999998 Q 0.7245 0.7004999999999997 0.735 0.6524999999999997 Q 0.7455 0.6044999999999997 0.7455 0.5534999999999998 L 0.7455 0.005999999999999783 L 1.038 0.005999999999999783 L 1.038 0.5534999999999998 Q 1.038 0.6644999999999996 1.00875 0.7604999999999997 Q 0.9795 0.8564999999999997 0.921 0.9284999999999997 Q 0.8625 1.0004999999999997 0.77175 1.0402499999999997 Q 0.681 1.0799999999999996 0.5565 1.0799999999999996 M 1.502971435546875 0.5474999999999998 L 1.502971435546875 1.0709999999999997 L 1.2104714355468749 1.0709999999999997 L 1.2104714355468749 0.005999999999999783 L 1.4384714355468748 0.005999999999999783 L 1.865971435546875 0.5474999999999998 L 1.865971435546875 0.005999999999999783 L 2.158471435546875 0.005999999999999783 L 2.158471435546875 1.0709999999999997 L 1.925971435546875 1.0709999999999997 L 1.502971435546875 0.5474999999999998 M 2.346013916015625 1.0709999999999997 L 2.346013916015625 0.005999999999999783 L 2.638513916015625 0.005999999999999783 L 2.638513916015625 1.0709999999999997 L 2.346013916015625 1.0709999999999997 M 3.031538818359375 0.005999999999999783 L 3.240038818359375 0.7334999999999997 L 3.445538818359375 0.005999999999999783 L 3.753038818359375 0.005999999999999783 L 3.3855388183593753 1.0709999999999997 L 3.094538818359375 1.0709999999999997 L 2.722538818359375 0.005999999999999783 L 3.031538818359375 0.005999999999999783 M 4.27651171875 1.0799999999999996 Q 4.15501171875 1.0799999999999996 4.05601171875 1.0342499999999997 Q 3.9570117187499996 0.9884999999999997 3.88576171875 0.9112499999999997 Q 3.81451171875 0.8339999999999997 3.77626171875 0.7372499999999997 Q 3.7380117187499997 0.6404999999999997 3.7380117187499997 0.5369999999999997 Q 3.7380117187499997 0.43049999999999977 3.77851171875 0.3344999999999997 Q 3.8190117187499997 0.2384999999999997 3.8917617187499998 0.16274999999999973 Q 3.96451171875 0.08699999999999974 4.06426171875 0.04349999999999965 Q 4.164011718749999 -2.220446049250313e-16 4.2825117187499995 -2.220446049250313e-16 Q 4.40401171875 -2.220446049250313e-16 4.50301171875 0.045749999999999735 Q 4.60201171875 0.09149999999999969 4.67251171875 0.16949999999999976 Q 4.74301171875 0.24749999999999972 4.78126171875 0.3442499999999997 Q 4.81951171875 0.4409999999999997 4.81951171875 0.5429999999999997 Q 4.81951171875 0.6479999999999997 4.77976171875 0.7439999999999998 Q 4.74001171875 0.8399999999999997 4.66726171875 0.9157499999999997 Q 4.59451171875 0.9914999999999997 4.4955117187499996 1.0357499999999997 Q 4.39651171875 1.0799999999999996 4.27651171875 1.0799999999999996 M 4.03501171875 0.5399999999999997 Q 4.03501171875 0.5939999999999996 4.0500117187499995 0.6442499999999998 Q 4.06501171875 0.6944999999999997 4.0950117187499995 0.7342499999999997 Q 4.12501171875 0.7739999999999998 4.17076171875 0.7972499999999998 Q 4.21651171875 0.8204999999999998 4.279511718749999 0.8204999999999998 Q 4.34251171875 0.8204999999999998 4.38901171875 0.7964999999999998 Q 4.43551171875 0.7724999999999997 4.46476171875 0.7312499999999997 Q 4.4940117187499995 0.6899999999999997 4.50826171875 0.6397499999999997 Q 4.52251171875 0.5894999999999997 4.52251171875 0.5369999999999997 Q 4.52251171875 0.48299999999999976 4.50751171875 0.43349999999999966 Q 4.492511718749999 0.3839999999999997 4.46251171875 0.3442499999999997 Q 4.43251171875 0.30449999999999966 4.38601171875 0.2819999999999997 Q 4.33951171875 0.25949999999999973 4.27801171875 0.25949999999999973 Q 4.21501171875 0.25949999999999973 4.16926171875 0.28349999999999975 Q 4.12351171875 0.30749999999999966 4.093511718749999 0.3472499999999997 Q 4.06351171875 0.3869999999999997 4.0492617187499995 0.4372499999999997 Q 4.03501171875 0.4874999999999997 4.03501171875 0.5399999999999997" fill="#ffc632" fill-rule="nonzero"></path></g><g><path d=" M 0.44475000000000003 1.4725125000000001 L 0.255 1.4725125000000001 L 0.255 1.9585125 L 0.2025 1.9585125 L 0.2025 1.4725125000000001 L 0.012750000000000001 1.4725125000000001 L 0.012750000000000001 1.4260125000000001 L 0.44475000000000003 1.4260125000000001 L 0.44475000000000003 1.4725125000000001 M 0.5253640136718749 1.9585125 L 0.5253640136718749 1.4260125000000001 L 0.750364013671875 1.4260125000000001 Q 0.784864013671875 1.4260125000000001 0.8133640136718749 1.4402625000000002 Q 0.8418640136718749 1.4545125 0.8632390136718749 1.4788875000000001 Q 0.884614013671875 1.5032625000000002 0.896239013671875 1.5328875000000002 Q 0.907864013671875 1.5625125 0.907864013671875 1.5932625 Q 0.907864013671875 1.6315125000000001 0.8932390136718749 1.6652625 Q 0.878614013671875 1.6990125 0.851989013671875 1.7222625 Q 0.825364013671875 1.7455125 0.7893640136718749 1.7530125 L 0.919864013671875 1.9585125 L 0.860614013671875 1.9585125 L 0.7353640136718749 1.7620125 L 0.5778640136718749 1.7620125 L 0.5778640136718749 1.9585125 L 0.5253640136718749 1.9585125 M 0.5778640136718749 1.7155125 L 0.7518640136718749 1.7155125 Q 0.7833640136718749 1.7155125 0.8066140136718749 1.6982625000000002 Q 0.8298640136718749 1.6810125 0.8426140136718749 1.6528875 Q 0.855364013671875 1.6247625 0.855364013671875 1.5932625 Q 0.855364013671875 1.5610125000000001 0.8407390136718749 1.5336375000000002 Q 0.826114013671875 1.5062625 0.801739013671875 1.4893875 Q 0.7773640136718749 1.4725125000000001 0.7473640136718749 1.4725125000000001 L 0.5778640136718749 1.4725125000000001 L 0.5778640136718749 1.7155125 M 1.17900732421875 1.4260125000000001 L 1.2232573242187499 1.4260125000000001 L 1.4445073242187498 1.9585125 L 1.38900732421875 1.9585125 L 1.32000732421875 1.7920125 L 1.0807573242187498 1.7920125 L 1.01250732421875 1.9585125 L 0.9562573242187499 1.9585125 L 1.17900732421875 1.4260125000000001 M 1.30800732421875 1.7507625 L 1.20075732421875 1.4875125 L 1.0920073242187498 1.7507625 L 1.30800732421875 1.7507625 M 1.4674006347656248 1.6885125 Q 1.4674006347656248 1.6397625 1.4842756347656247 1.5928875 Q 1.5011506347656247 1.5460125 1.5334006347656246 1.5073875 Q 1.5656506347656247 1.4687625 1.6129006347656247 1.4458875 Q 1.6601506347656247 1.4230125 1.7201506347656248 1.4230125 Q 1.7914006347656246 1.4230125 1.8420256347656248 1.4556375000000001 Q 1.8926506347656247 1.4882625 1.9166506347656247 1.5392625 L 1.8754006347656247 1.5647625 Q 1.8581506347656247 1.5295125 1.8319006347656246 1.5088875000000002 Q 1.8056506347656247 1.4882625 1.7760256347656247 1.4792625000000001 Q 1.7464006347656247 1.4702625 1.7171506347656247 1.4702625 Q 1.6691506347656246 1.4702625 1.6324006347656246 1.4893875 Q 1.5956506347656247 1.5085125000000001 1.5705256347656247 1.5403875 Q 1.5454006347656246 1.5722625000000001 1.5326506347656248 1.6116375 Q 1.5199006347656248 1.6510125000000002 1.5199006347656248 1.6915125 Q 1.5199006347656248 1.7357625 1.5349006347656247 1.7762625 Q 1.5499006347656248 1.8167625 1.5769006347656247 1.8478875000000001 Q 1.6039006347656246 1.8790125000000002 1.6402756347656247 1.8973875 Q 1.6766506347656247 1.9157625 1.7194006347656248 1.9157625 Q 1.7494006347656246 1.9157625 1.7809006347656247 1.9052625 Q 1.8124006347656247 1.8947625000000001 1.8397756347656247 1.8730125000000002 Q 1.8671506347656246 1.8512625 1.8836506347656248 1.8167625 L 1.9271506347656246 1.8392625 Q 1.9106506347656247 1.8790125000000002 1.8761506347656247 1.9067625000000001 Q 1.8416506347656247 1.9345125 1.7992756347656247 1.9487625000000002 Q 1.7569006347656246 1.9630125 1.7164006347656247 1.9630125 Q 1.6616506347656248 1.9630125 1.6159006347656246 1.9393875 Q 1.5701506347656247 1.9157625 1.5367756347656247 1.8763875 Q 1.5034006347656246 1.8370125000000002 1.4854006347656248 1.7878875 Q 1.4674006347656248 1.7387625 1.4674006347656248 1.6885125 M 2.018256225585937 1.9585125 L 2.018256225585937 1.4267625000000002 L 2.0707562255859373 1.4267625000000002 L 2.0707562255859373 1.7357625 L 2.3640062255859373 1.4260125000000001 L 2.4217562255859373 1.4260125000000001 L 2.2042562255859375 1.6600125000000001 L 2.4330062255859373 1.9585125 L 2.3737562255859372 1.9585125 L 2.170506225585937 1.6915125 L 2.0707562255859373 1.7950125000000001 L 2.0707562255859373 1.9585125 L 2.018256225585937 1.9585125 M 2.48363525390625 1.9585125 L 2.48363525390625 1.8850125000000002 L 2.5278852539062497 1.8850125000000002 L 2.5278852539062497 1.9585125 L 2.48363525390625 1.9585125 M 2.801658325195312 1.6885125 Q 2.801658325195312 1.6397625 2.8185333251953124 1.5928875 Q 2.835408325195312 1.5460125 2.8676583251953125 1.5073875 Q 2.8999083251953124 1.4687625 2.9471583251953124 1.4458875 Q 2.9944083251953124 1.4230125 3.0544083251953125 1.4230125 Q 3.1256583251953125 1.4230125 3.176283325195312 1.4556375000000001 Q 3.2269083251953123 1.4882625 3.2509083251953124 1.5392625 L 3.2096583251953126 1.5647625 Q 3.1924083251953124 1.5295125 3.1661583251953123 1.5088875000000002 Q 3.1399083251953126 1.4882625 3.1102833251953124 1.4792625000000001 Q 3.080658325195312 1.4702625 3.0514083251953124 1.4702625 Q 3.0034083251953123 1.4702625 2.9666583251953123 1.4893875 Q 2.929908325195312 1.5085125000000001 2.9047833251953126 1.5403875 Q 2.8796583251953125 1.5722625000000001 2.8669083251953125 1.6116375 Q 2.8541583251953124 1.6510125000000002 2.8541583251953124 1.6915125 Q 2.8541583251953124 1.7357625 2.8691583251953126 1.7762625 Q 2.8841583251953122 1.8167625 2.9111583251953124 1.8478875000000001 Q 2.9381583251953125 1.8790125000000002 2.9745333251953125 1.8973875 Q 3.010908325195312 1.9157625 3.0536583251953124 1.9157625 Q 3.0836583251953122 1.9157625 3.1151583251953125 1.9052625 Q 3.1466583251953124 1.8947625000000001 3.174033325195312 1.8730125000000002 Q 3.2014083251953123 1.8512625 3.2179083251953124 1.8167625 L 3.2614083251953123 1.8392625 Q 3.244908325195312 1.8790125000000002 3.2104083251953126 1.9067625000000001 Q 3.175908325195312 1.9345125 3.1335333251953124 1.9487625000000002 Q 3.0911583251953125 1.9630125 3.0506583251953123 1.9630125 Q 2.9959083251953125 1.9630125 2.9501583251953125 1.9393875 Q 2.9044083251953126 1.9157625 2.871033325195312 1.8763875 Q 2.8376583251953122 1.8370125000000002 2.8196583251953125 1.7878875 Q 2.801658325195312 1.7387625 2.801658325195312 1.6885125 M 3.510006591796875 1.4260125000000001 L 3.554256591796875 1.4260125000000001 L 3.775506591796875 1.9585125 L 3.7200065917968748 1.9585125 L 3.651006591796875 1.7920125 L 3.411756591796875 1.7920125 L 3.3435065917968747 1.9585125 L 3.287256591796875 1.9585125 L 3.510006591796875 1.4260125000000001 M 3.639006591796875 1.7507625 L 3.5317565917968747 1.4875125 L 3.423006591796875 1.7507625 L 3.639006591796875 1.7507625 M 3.853150634765625 1.9585125 L 3.853150634765625 1.4260125000000001 L 3.905650634765625 1.4260125000000001 L 3.905650634765625 1.9120125000000001 L 4.213150634765625 1.9120125000000001 L 4.213150634765625 1.9585125 L 3.853150634765625 1.9585125 M 4.234537719726562 1.6885125 Q 4.234537719726562 1.6397625 4.251412719726562 1.5928875 Q 4.268287719726562 1.5460125 4.300537719726562 1.5073875 Q 4.332787719726562 1.4687625 4.380037719726562 1.4458875 Q 4.427287719726562 1.4230125 4.487287719726562 1.4230125 Q 4.558537719726562 1.4230125 4.609162719726562 1.4556375000000001 Q 4.6597877197265625 1.4882625 4.683787719726562 1.5392625 L 4.642537719726562 1.5647625 Q 4.625287719726562 1.5295125 4.599037719726562 1.5088875000000002 Q 4.572787719726562 1.4882625 4.543162719726562 1.4792625000000001 Q 4.513537719726562 1.4702625 4.484287719726562 1.4702625 Q 4.436287719726562 1.4702625 4.399537719726562 1.4893875 Q 4.362787719726562 1.5085125000000001 4.337662719726562 1.5403875 Q 4.312537719726562 1.5722625000000001 4.299787719726562 1.6116375 Q 4.287037719726562 1.6510125000000002 4.287037719726562 1.6915125 Q 4.287037719726562 1.7357625 4.302037719726562 1.7762625 Q 4.317037719726562 1.8167625 4.344037719726562 1.8478875000000001 Q 4.371037719726562 1.8790125000000002 4.407412719726562 1.8973875 Q 4.443787719726562 1.9157625 4.486537719726562 1.9157625 Q 4.516537719726562 1.9157625 4.548037719726562 1.9052625 Q 4.579537719726562 1.8947625000000001 4.606912719726562 1.8730125000000002 Q 4.634287719726562 1.8512625 4.650787719726562 1.8167625 L 4.694287719726562 1.8392625 Q 4.677787719726562 1.8790125000000002 4.643287719726562 1.9067625000000001 Q 4.608787719726562 1.9345125 4.5664127197265625 1.9487625000000002 Q 4.524037719726562 1.9630125 4.483537719726562 1.9630125 Q 4.428787719726562 1.9630125 4.383037719726562 1.9393875 Q 4.337287719726562 1.9157625 4.303912719726562 1.8763875 Q 4.270537719726562 1.8370125000000002 4.252537719726562 1.7878875 Q 4.234537719726562 1.7387625 4.234537719726562 1.6885125 M 5.002143310546875 1.9622625 Q 4.939143310546875 1.9622625 4.895643310546874 1.9397625 Q 4.852143310546874 1.9172625 4.826643310546874 1.8793875 Q 4.801143310546874 1.8415125 4.789518310546875 1.7935125 Q 4.777893310546874 1.7455125 4.777893310546874 1.6945125 L 4.777893310546874 1.4260125000000001 L 4.829643310546874 1.4260125000000001 L 4.829643310546874 1.6945125 Q 4.829643310546874 1.7357625 4.838268310546875 1.7755125 Q 4.846893310546875 1.8152625 4.866393310546875 1.8467625 Q 4.885893310546875 1.8782625000000002 4.918893310546874 1.8966375000000002 Q 4.9518933105468745 1.9150125 5.001393310546875 1.9150125 Q 5.052393310546875 1.9150125 5.085768310546874 1.8958875000000002 Q 5.119143310546875 1.8767625000000001 5.1382683105468745 1.8452625 Q 5.157393310546874 1.8137625000000002 5.165643310546875 1.7743875 Q 5.173893310546875 1.7350125 5.173893310546875 1.6945125 L 5.173893310546875 1.4260125000000001 L 5.226393310546874 1.4260125000000001 L 5.226393310546874 1.6945125 Q 5.226393310546874 1.7477625 5.214393310546875 1.7965125000000002 Q 5.202393310546874 1.8452625 5.175768310546875 1.8820125 Q 5.149143310546875 1.9187625000000001 5.106393310546874 1.9405125 Q 5.063643310546874 1.9622625 5.002143310546875 1.9622625 M 5.3527719726562495 1.9585125 L 5.3527719726562495 1.4260125000000001 L 5.40527197265625 1.4260125000000001 L 5.40527197265625 1.9120125000000001 L 5.71277197265625 1.9120125000000001 L 5.71277197265625 1.9585125 L 5.3527719726562495 1.9585125 M 5.95615283203125 1.4260125000000001 L 6.0004028320312495 1.4260125000000001 L 6.22165283203125 1.9585125 L 6.1661528320312495 1.9585125 L 6.09715283203125 1.7920125 L 5.857902832031249 1.7920125 L 5.7896528320312495 1.9585125 L 5.73340283203125 1.9585125 L 5.95615283203125 1.4260125000000001 M 6.08515283203125 1.7507625 L 5.9779028320312495 1.4875125 L 5.86915283203125 1.7507625 L 6.08515283203125 1.7507625 M 6.626302001953125 1.4725125000000001 L 6.436552001953125 1.4725125000000001 L 6.436552001953125 1.9585125 L 6.384052001953124 1.9585125 L 6.384052001953124 1.4725125000000001 L 6.194302001953124 1.4725125000000001 L 6.194302001953124 1.4260125000000001 L 6.626302001953125 1.4260125000000001 L 6.626302001953125 1.4725125000000001 M 7.064666015625 1.9120125000000001 L 7.064666015625 1.9585125 L 6.706916015625 1.9585125 L 6.706916015625 1.4260125000000001 L 7.057916015625 1.4260125000000001 L 7.057916015625 1.4725125000000001 L 6.759416015625 1.4725125000000001 L 6.759416015625 1.6645125 L 7.019666015625 1.6645125 L 7.019666015625 1.7087625000000002 L 6.759416015625 1.7087625000000002 L 6.759416015625 1.9120125000000001 L 7.064666015625 1.9120125000000001 M 7.146797607421875 1.9585125 L 7.146797607421875 1.8850125000000002 L 7.191047607421875 1.8850125000000002 L 7.191047607421875 1.9585125 L 7.146797607421875 1.9585125 M 7.714570678710937 1.9622625 Q 7.658320678710937 1.9622625 7.612570678710937 1.9397625 Q 7.566820678710937 1.9172625 7.533820678710938 1.8786375000000002 Q 7.500820678710937 1.8400125 7.4828206787109375 1.7916375000000002 Q 7.464820678710938 1.7432625000000002 7.464820678710938 1.6922625 Q 7.464820678710938 1.6390125000000002 7.4835706787109375 1.5906375000000001 Q 7.502320678710937 1.5422625 7.536445678710938 1.5043875 Q 7.570570678710937 1.4665125 7.616320678710937 1.4443875 Q 7.662070678710937 1.4222625 7.715320678710937 1.4222625 Q 7.771570678710938 1.4222625 7.817320678710938 1.4455125 Q 7.863070678710938 1.4687625 7.895695678710937 1.5077625000000001 Q 7.9283206787109375 1.5467625 7.946320678710937 1.5947625 Q 7.964320678710937 1.6427625000000001 7.964320678710937 1.6930125 Q 7.964320678710937 1.7462625 7.945570678710937 1.7946375 Q 7.926820678710937 1.8430125000000002 7.893070678710937 1.8808875 Q 7.8593206787109375 1.9187625000000001 7.813570678710938 1.9405125 Q 7.767820678710938 1.9622625 7.714570678710937 1.9622625 M 7.517320678710937 1.6922625 Q 7.517320678710937 1.7357625 7.5315706787109375 1.7758875 Q 7.545820678710937 1.8160125 7.572070678710937 1.8471375 Q 7.598320678710937 1.8782625000000002 7.634695678710937 1.8966375000000002 Q 7.6710706787109375 1.9150125 7.714570678710937 1.9150125 Q 7.760320678710937 1.9150125 7.796695678710938 1.8958875000000002 Q 7.833070678710937 1.8767625000000001 7.8589456787109375 1.8448875 Q 7.884820678710938 1.8130125000000001 7.898320678710937 1.7732625000000002 Q 7.911820678710938 1.7335125 7.911820678710938 1.6922625 Q 7.911820678710938 1.6487625000000001 7.897570678710937 1.6090125 Q 7.883320678710938 1.5692625000000002 7.856695678710937 1.5377625000000001 Q 7.830070678710937 1.5062625 7.794070678710938 1.4882625 Q 7.758070678710937 1.4702625 7.714570678710937 1.4702625 Q 7.6695706787109375 1.4702625 7.633195678710937 1.4890125 Q 7.596820678710937 1.5077625000000001 7.570945678710937 1.5396375 Q 7.545070678710937 1.5715125 7.5311956787109375 1.6112625 Q 7.517320678710937 1.6510125000000002 7.517320678710937 1.6922625 M 8.064428100585937 1.9585125 L 8.064428100585937 1.4260125000000001 L 8.289428100585937 1.4260125000000001 Q 8.323928100585938 1.4260125000000001 8.352428100585938 1.4402625000000002 Q 8.380928100585937 1.4545125 8.402303100585938 1.4788875000000001 Q 8.423678100585937 1.5032625000000002 8.435303100585937 1.5328875000000002 Q 8.446928100585938 1.5625125 8.446928100585938 1.5932625 Q 8.446928100585938 1.6315125000000001 8.432303100585937 1.6652625 Q 8.417678100585938 1.6990125 8.391053100585937 1.7222625 Q 8.364428100585938 1.7455125 8.328428100585937 1.7530125 L 8.458928100585938 1.9585125 L 8.399678100585938 1.9585125 L 8.274428100585938 1.7620125 L 8.116928100585938 1.7620125 L 8.116928100585938 1.9585125 L 8.064428100585937 1.9585125 M 8.116928100585938 1.7155125 L 8.290928100585937 1.7155125 Q 8.322428100585938 1.7155125 8.345678100585937 1.6982625000000002 Q 8.368928100585938 1.6810125 8.381678100585937 1.6528875 Q 8.394428100585937 1.6247625 8.394428100585937 1.5932625 Q 8.394428100585937 1.5610125000000001 8.379803100585937 1.5336375000000002 Q 8.365178100585938 1.5062625 8.340803100585937 1.4893875 Q 8.316428100585938 1.4725125000000001 8.286428100585937 1.4725125000000001 L 8.116928100585938 1.4725125000000001 L 8.116928100585938 1.7155125 M 8.769064453124999 1.9622625 Q 8.715814453124999 1.9622625 8.670064453124999 1.9393875 Q 8.624314453124999 1.9165125 8.590564453125 1.8775125000000001 Q 8.556814453125 1.8385125000000002 8.538439453125 1.7905125000000002 Q 8.520064453124998 1.7425125000000001 8.520064453124998 1.6915125 Q 8.520064453124998 1.6375125000000001 8.538439453125 1.5891375 Q 8.556814453125 1.5407625 8.589814453125 1.5032625000000002 Q 8.622814453124999 1.4657625 8.667814453124999 1.4440125000000001 Q 8.712814453124999 1.4222625 8.766064453124999 1.4222625 Q 8.844814453124998 1.4222625 8.894314453124998 1.4545125 Q 8.943814453124999 1.4867625000000002 8.969314453125 1.5385125000000002 L 8.928814453125 1.5655125 Q 8.903314453124999 1.5160125 8.860564453124999 1.4927625 Q 8.817814453125 1.4695125 8.765314453124999 1.4695125 Q 8.721064453124999 1.4695125 8.685439453125 1.4882625 Q 8.649814453125 1.5070125 8.624314453124999 1.5385125000000002 Q 8.598814453125 1.5700125 8.585689453125 1.6097625 Q 8.572564453124999 1.6495125000000002 8.572564453124999 1.6922625 Q 8.572564453124999 1.7372625000000002 8.587564453125 1.7773875000000001 Q 8.602564453125 1.8175125 8.630314453125 1.8486375000000002 Q 8.658064453124998 1.8797625 8.694439453125 1.8973875 Q 8.730814453125 1.9150125 8.772814453125 1.9150125 Q 8.821564453125 1.9150125 8.865064453125 1.8906375000000002 Q 8.908564453124999 1.8662625000000002 8.948314453124999 1.8152625 L 8.948314453124999 1.8707625 Q 8.872564453125 1.9622625 8.769064453124999 1.9622625 M 8.940064453124998 1.7372625000000002 L 8.821564453125 1.7372625000000002 L 8.821564453125 1.6967625000000002 L 8.984314453124998 1.6967625000000002 L 8.984314453124998 1.9585125 L 8.940064453124998 1.9585125 L 8.940064453124998 1.7372625000000002 M 9.258442016601562 1.4260125000000001 L 9.302692016601561 1.4260125000000001 L 9.523942016601561 1.9585125 L 9.468442016601562 1.9585125 L 9.399442016601562 1.7920125 L 9.160192016601561 1.7920125 L 9.091942016601562 1.9585125 L 9.035692016601562 1.9585125 L 9.258442016601562 1.4260125000000001 M 9.387442016601561 1.7507625 L 9.280192016601562 1.4875125 L 9.171442016601562 1.7507625 L 9.387442016601561 1.7507625 M 9.65408605957031 1.5227625 L 9.65408605957031 1.9585125 L 9.601586059570312 1.9585125 L 9.601586059570312 1.4260125000000001 L 9.645086059570312 1.4260125000000001 L 9.994586059570311 1.8700125 L 9.994586059570311 1.4267625000000002 L 10.047086059570312 1.4267625000000002 L 10.047086059570312 1.9585125 L 9.998336059570311 1.9585125 L 9.65408605957031 1.5227625 M 10.181690551757812 1.9585125 L 10.181690551757812 1.4260125000000001 L 10.234190551757811 1.4260125000000001 L 10.234190551757811 1.9585125 L 10.181690551757812 1.9585125 M 10.325304931640625 1.9172625 L 10.687554931640625 1.4725125000000001 L 10.331304931640624 1.4725125000000001 L 10.331304931640624 1.4260125000000001 L 10.748304931640625 1.4260125000000001 L 10.748304931640625 1.4672625000000001 L 10.390554931640624 1.9120125000000001 L 10.747554931640625 1.9120125000000001 L 10.747554931640625 1.9585125 L 10.325304931640625 1.9585125 L 10.325304931640625 1.9172625 M 11.199451171875 1.9120125000000001 L 11.199451171875 1.9585125 L 10.841701171875 1.9585125 L 10.841701171875 1.4260125000000001 L 11.192701171875 1.4260125000000001 L 11.192701171875 1.4725125000000001 L 10.894201171874998 1.4725125000000001 L 10.894201171874998 1.6645125 L 11.154451171875 1.6645125 L 11.154451171875 1.7087625000000002 L 10.894201171874998 1.7087625000000002 L 10.894201171874998 1.9120125000000001 L 11.199451171875 1.9120125000000001 M 11.281582763671874 1.9585125 L 11.281582763671874 1.8850125000000002 L 11.325832763671874 1.8850125000000002 L 11.325832763671874 1.9585125 L 11.281582763671874 1.9585125" fill="#af2cff" fill-rule="nonzero"></path></g></g><defs><clipPath id="SvgjsClipPath6557"><path d=" M -7.6620217828188135 -1.0748489892518438 h 7.262021782818813 v 4.108210478503688 h -7.262021782818813 Z"></path></clipPath><clipPath id="af61b17c3-ae9d-431f-9e64-71d944bf50744dbb1636-212d-4d52-979f-d47183e2a67f"><path d=" M -7.6620217828188135 3.0334466882497186 L -0.40000000000000036 3.0334466882497186 L -0.40000000000000036 -1.0748489892518438 L -7.6620217828188135 -1.0748489892518438 Z"></path></clipPath></defs></svg>