<svg xmlns="http://www.w3.org/2000/svg" version="1.1" xmlns:xlink="http://www.w3.org/1999/xlink" viewBox="0 0 5.679288989519982 4.241774587844807"><g transform="matrix(0.8368845963789006,0,0,0.8368845963789006,0.8091391448862231,2.1833390623858904)"><rect width="6.506044287633714" height="6.506044287633714" x="-0.8267552981137323" y="-3.3276462541586027" fill="#ffffff"></rect><g transform="matrix(1,0,0,1,0,0)" clip-path="url(#SvgjsClipPath173452)"><g clip-path="url(#a1dfcb9f5-2d7f-4c0d-8e6a-d84141c9cc8edec19da4-d1c9-4433-9ad0-35f82ed37a0d)"><path d=" M 2.0481195709813775 -0.9305776333558307 L 2.0481195709813775 -0.49660175603317636 C 2.0481195709813775 -0.1677994146556081 0.6569056441476466 -0.1677994146556081 0.6569056441476466 -0.49660175603317636 L 0.6569056441476466 -0.9305776333558307 L 1.3541648806367612 -0.6445437449637867 Z M 1.3541648806367612 -1.7821337552072831 L 0 -1.2626845208778972 L 0.3065602038665228 -1.1377472570301395 L 0.3065602038665228 -0.8484088224935973 C 0.3132963940841538 -0.8516498196737783 0.32003258430178455 -0.8516498196737783 0.32676877451941555 -0.8516498196737783 C 0.33350496473704655 -0.8516498196737783 0.3402411549546773 -0.8516498196737783 0.3469773451723083 -0.8484088224935973 L 0.3469773451723083 -1.1212880752719656 L 1.3541648806367612 -0.7037078307431677 L 2.7083297612735224 -1.262684520877897 Z M 0.3234006794106 -0.6116253814474397 C 0.29308782343126094 -0.6116253814474397 0.26277496745192186 -0.6215390198809341 0.2425663967990293 -0.6412391988192887 L 0.2021492554932442 -0.37821003551009746 C 0.2021492554932442 -0.36835994604092015 0.22572592125495225 -0.36175085375192384 0.2560387772342911 -0.3552053104272448 C 0.2594068723431066 -0.36835994604092015 0.26277496745192214 -0.3847555788347763 0.26277496745192214 -0.3979102144484521 L 0.26277496745192214 -0.3552053104272448 C 0.2964559185400767 -0.35190076428274675 0.3402411549546776 -0.35190076428274675 0.37729020115164746 -0.3552053104272448 C 0.38065829626046294 -0.3847555788347763 0.38402639136927846 -0.4143693962066257 0.38402639136927846 -0.4439832135784747 C 0.39076258158690924 -0.4143693962066257 0.3941306766957245 -0.3880601249792748 0.3941306766957245 -0.3584463076074256 C 0.4244435326750636 -0.36175085375192384 0.4446521033279564 -0.36835994604092015 0.4446521033279564 -0.38151458165459573 L 0.404234962022171 -0.6445437449637867 C 0.3829226711041518 -0.6229828304187301 0.3537123502833177 -0.6110874324743967 0.32340067941060074 -0.6116253814474397 M 0.3234006794106005 -0.6313891093501114 C 0.38065829626046316 -0.6313891093501114 0.4244435326750638 -0.6740940133713187 0.4244435326750638 -0.7300171019705184 C 0.4244435326750638 -0.7859401905697183 0.38065829626046316 -0.8286450945909254 0.3234006794106005 -0.8286450945909254 C 0.2661430625607379 -0.8286450945909254 0.222357826146137 -0.7859401905697183 0.222357826146137 -0.7300171019705184 C 0.222357826146137 -0.6740940133713187 0.2661430625607379 -0.6313891093501114 0.3234006794106005 -0.6313891093501114" fill="#000000" transform="matrix(1,0,0,1,0,0)" fill-rule="nonzero"></path></g></g><g><path d=" M 0.5565 1.0799999999999996 Q 0.429 1.0799999999999996 0.3375 1.0379999999999998 Q 0.246 0.9959999999999998 0.18825 0.9224999999999998 Q 0.1305 0.8489999999999998 0.10350000000000001 0.7537499999999997 Q 0.0765 0.6584999999999996 0.0765 0.5534999999999998 L 0.0765 0.005999999999999783 L 0.369 0.005999999999999783 L 0.369 0.5534999999999998 Q 0.369 0.6059999999999997 0.3795 0.6539999999999997 Q 0.39 0.7019999999999997 0.41250000000000003 0.7394999999999997 Q 0.435 0.7769999999999997 0.47025 0.7987499999999997 Q 0.5055000000000001 0.8204999999999998 0.5565 0.8204999999999998 Q 0.609 0.8204999999999998 0.645 0.7987499999999997 Q 0.681 0.7769999999999997 0.70275 0.7387499999999998 Q 0.7245 0.7004999999999997 0.735 0.6524999999999997 Q 0.7455 0.6044999999999997 0.7455 0.5534999999999998 L 0.7455 0.005999999999999783 L 1.038 0.005999999999999783 L 1.038 0.5534999999999998 Q 1.038 0.6644999999999996 1.00875 0.7604999999999997 Q 0.9795 0.8564999999999997 0.921 0.9284999999999997 Q 0.8625 1.0004999999999997 0.77175 1.0402499999999997 Q 0.681 1.0799999999999996 0.5565 1.0799999999999996 M 1.502971435546875 0.5474999999999998 L 1.502971435546875 1.0709999999999997 L 1.2104714355468749 1.0709999999999997 L 1.2104714355468749 0.005999999999999783 L 1.4384714355468748 0.005999999999999783 L 1.865971435546875 0.5474999999999998 L 1.865971435546875 0.005999999999999783 L 2.158471435546875 0.005999999999999783 L 2.158471435546875 1.0709999999999997 L 1.925971435546875 1.0709999999999997 L 1.502971435546875 0.5474999999999998 M 2.346013916015625 1.0709999999999997 L 2.346013916015625 0.005999999999999783 L 2.638513916015625 0.005999999999999783 L 2.638513916015625 1.0709999999999997 L 2.346013916015625 1.0709999999999997 M 3.031538818359375 0.005999999999999783 L 3.240038818359375 0.7334999999999997 L 3.445538818359375 0.005999999999999783 L 3.753038818359375 0.005999999999999783 L 3.3855388183593753 1.0709999999999997 L 3.094538818359375 1.0709999999999997 L 2.722538818359375 0.005999999999999783 L 3.031538818359375 0.005999999999999783 M 4.27651171875 1.0799999999999996 Q 4.15501171875 1.0799999999999996 4.05601171875 1.0342499999999997 Q 3.9570117187499996 0.9884999999999997 3.88576171875 0.9112499999999997 Q 3.81451171875 0.8339999999999997 3.77626171875 0.7372499999999997 Q 3.7380117187499997 0.6404999999999997 3.7380117187499997 0.5369999999999997 Q 3.7380117187499997 0.43049999999999977 3.77851171875 0.3344999999999997 Q 3.8190117187499997 0.2384999999999997 3.8917617187499998 0.16274999999999973 Q 3.96451171875 0.08699999999999974 4.06426171875 0.04349999999999965 Q 4.164011718749999 -2.220446049250313e-16 4.2825117187499995 -2.220446049250313e-16 Q 4.40401171875 -2.220446049250313e-16 4.50301171875 0.045749999999999735 Q 4.60201171875 0.09149999999999969 4.67251171875 0.16949999999999976 Q 4.74301171875 0.24749999999999972 4.78126171875 0.3442499999999997 Q 4.81951171875 0.4409999999999997 4.81951171875 0.5429999999999997 Q 4.81951171875 0.6479999999999997 4.77976171875 0.7439999999999998 Q 4.74001171875 0.8399999999999997 4.66726171875 0.9157499999999997 Q 4.59451171875 0.9914999999999997 4.4955117187499996 1.0357499999999997 Q 4.39651171875 1.0799999999999996 4.27651171875 1.0799999999999996 M 4.03501171875 0.5399999999999997 Q 4.03501171875 0.5939999999999996 4.0500117187499995 0.6442499999999998 Q 4.06501171875 0.6944999999999997 4.0950117187499995 0.7342499999999997 Q 4.12501171875 0.7739999999999998 4.17076171875 0.7972499999999998 Q 4.21651171875 0.8204999999999998 4.279511718749999 0.8204999999999998 Q 4.34251171875 0.8204999999999998 4.38901171875 0.7964999999999998 Q 4.43551171875 0.7724999999999997 4.46476171875 0.7312499999999997 Q 4.4940117187499995 0.6899999999999997 4.50826171875 0.6397499999999997 Q 4.52251171875 0.5894999999999997 4.52251171875 0.5369999999999997 Q 4.52251171875 0.48299999999999976 4.50751171875 0.43349999999999966 Q 4.492511718749999 0.3839999999999997 4.46251171875 0.3442499999999997 Q 4.43251171875 0.30449999999999966 4.38601171875 0.2819999999999997 Q 4.33951171875 0.25949999999999973 4.27801171875 0.25949999999999973 Q 4.21501171875 0.25949999999999973 4.16926171875 0.28349999999999975 Q 4.12351171875 0.30749999999999966 4.093511718749999 0.3472499999999997 Q 4.06351171875 0.3869999999999997 4.0492617187499995 0.4372499999999997 Q 4.03501171875 0.4874999999999997 4.03501171875 0.5399999999999997" fill="#ffc632" fill-rule="nonzero"></path></g><g><path d=" M 0.18874777920533553 1.4247218792113299 L 0.10821963731840487 1.4247218792113299 L 0.10821963731840487 1.630975776218172 L 0.08593912375285091 1.630975776218172 L 0.08593912375285091 1.4247218792113299 L 0.005410981865920243 1.4247218792113299 L 0.005410981865920243 1.4049877100532677 L 0.18874777920533553 1.4049877100532677 L 0.18874777920533553 1.4247218792113299 M 0.2229596196851443 1.630975776218172 L 0.2229596196851443 1.4049877100532677 L 0.3184475349660898 1.4049877100532677 Q 0.33308901530916807 1.4049877100532677 0.3451841512447545 1.4110352780210609 Q 0.35727928718034097 1.4170828459888543 0.36635063913203075 1.4274273701442899 Q 0.37542199108372054 1.4377718942997257 0.3803555333732361 1.450344469811717 Q 0.3852890756627516 1.462917045323708 0.3852890756627516 1.4759670604121038 Q 0.3852890756627516 1.4922000060098646 0.3790823611694901 1.5065231933020065 Q 0.3728756466762287 1.5208463805941483 0.36157624336798344 1.5307134651731793 Q 0.35027684005973825 1.5405805497522103 0.334998773614787 1.5437634802615752 L 0.3903817644777353 1.630975776218172 L 0.365236613453753 1.630975776218172 L 0.3120816739473601 1.547582996872813 L 0.24524013325069824 1.547582996872813 L 0.24524013325069824 1.630975776218172 L 0.2229596196851443 1.630975776218172 M 0.24524013325069824 1.5278488277147508 L 0.31908412106796274 1.5278488277147508 Q 0.3324524292072951 1.5278488277147508 0.34231951378632614 1.5205280875432117 Q 0.35218659836535715 1.5132073473716727 0.3575975802312774 1.5012713579615544 Q 0.3630085620971977 1.4893353685514363 0.3630085620971977 1.4759670604121038 Q 0.3630085620971977 1.462280459221835 0.3568018476039362 1.4506627628626534 Q 0.35059513311067475 1.4390450665034717 0.34025060895523895 1.4318834728574008 Q 0.3299060847998032 1.4247218792113299 0.31717436276234384 1.4247218792113299 L 0.24524013325069824 1.4247218792113299 L 0.24524013325069824 1.5278488277147508 M 0.5003597844027298 1.4049877100532677 L 0.5191390744079823 1.4049877100532677 L 0.6130355244342454 1.630975776218172 L 0.5894818386649455 1.630975776218172 L 0.5601988779787889 1.5603147189102724 L 0.4586633947300502 1.5603147189102724 L 0.4296987270948301 1.630975776218172 L 0.4058267482745937 1.630975776218172 L 0.5003597844027298 1.4049877100532677 M 0.5551061891638052 1.5428086011087656 L 0.5095902828798877 1.4310877402300595 L 0.4634377904940975 1.5428086011087656 L 0.5551061891638052 1.5428086011087656 M 0.622751233314247 1.5163902778810374 Q 0.622751233314247 1.495701229570166 0.6299128269603179 1.4758079138866356 Q 0.6370744206063889 1.4559145982031054 0.6507610217966577 1.4395225060798764 Q 0.6644476229869265 1.4231304139566474 0.6845000851959251 1.4134224759030847 Q 0.7045525474049237 1.4037145378495217 0.7300159914798424 1.4037145378495217 Q 0.7602538313188085 1.4037145378495217 0.7817386122570212 1.417560285565259 Q 0.803223393195234 1.431406033280996 0.8134087708252015 1.453049960744677 L 0.7959026530236948 1.4638719244765175 Q 0.7885819128521556 1.4489121510825027 0.7774416560693787 1.4401590921817493 Q 0.7663013992866017 1.431406033280996 0.7537288237746106 1.427586516669758 Q 0.7411562482626194 1.4237670000585203 0.7287428192760965 1.4237670000585203 Q 0.7083720640161615 1.4237670000585203 0.6927757045202737 1.4318834728574008 Q 0.6771793450243859 1.439999945656281 0.6665165278180137 1.4535274003210816 Q 0.6558537106116414 1.4670548549858824 0.6504427287457212 1.4837652401600478 Q 0.6450317468798009 1.5004756253342133 0.6450317468798009 1.5176634500847834 Q 0.6450317468798009 1.536442740090036 0.6513976078985306 1.5536305648406061 Q 0.6577634689172603 1.5708183895911765 0.6692220187509739 1.5840275512050406 Q 0.6806805685846873 1.5972367128189047 0.6961177815551067 1.6050348925668485 Q 0.7115549945255263 1.6128330723147923 0.729697698428906 1.6128330723147923 Q 0.7424294204663653 1.6128330723147923 0.7557977286056977 1.6083769696016816 Q 0.76916603674503 1.6039208668885707 0.7807837331042118 1.5946903684114127 Q 0.7924014294633934 1.5854598699342546 0.7994038765839961 1.5708183895911765 L 0.8178648735383123 1.580367181119271 Q 0.8108624264177096 1.5972367128189047 0.7962209460746312 1.6090135557035545 Q 0.781579465731553 1.6207903985882046 0.7635959083536416 1.6268379665559978 Q 0.7456123509757302 1.632885534523791 0.72842452622516 1.632885534523791 Q 0.7051891335067966 1.632885534523791 0.685773257399671 1.6228593034192917 Q 0.6663573812925454 1.6128330723147923 0.6521933405258719 1.5961226871406269 Q 0.6380292997591983 1.5794123019664614 0.6303902665367227 1.5585641071301217 Q 0.622751233314247 1.537715912293782 0.622751233314247 1.5163902778810374 M 0.85652924215107 1.630975776218172 L 0.85652924215107 1.4053060031042042 L 0.8788097557166239 1.4053060031042042 L 0.8788097557166239 1.536442740090036 L 1.0032623386327895 1.4049877100532677 L 1.0277709035548988 1.4049877100532677 L 0.9354659187833182 1.504295141945451 L 1.0325452993189461 1.630975776218172 L 1.0074001482949637 1.630975776218172 L 0.9211427314911763 1.5176634500847834 L 0.8788097557166239 1.5615878911140184 L 0.8788097557166239 1.630975776218172 L 0.85652924215107 1.630975776218172 M 1.0540317898389753 1.630975776218172 L 1.0540317898389753 1.5997830572263965 L 1.0728110798442279 1.5997830572263965 L 1.0728110798442279 1.630975776218172 L 1.0540317898389753 1.630975776218172 M 1.1889978346773578 1.5163902778810374 Q 1.1889978346773578 1.495701229570166 1.1961594283234287 1.4758079138866356 Q 1.2033210219694996 1.4559145982031054 1.2170076231597684 1.4395225060798764 Q 1.2306942243500374 1.4231304139566474 1.2507466865590358 1.4134224759030847 Q 1.2707991487680343 1.4037145378495217 1.2962625928429532 1.4037145378495217 Q 1.3265004326819192 1.4037145378495217 1.347985213620132 1.417560285565259 Q 1.3694699945583446 1.431406033280996 1.3796553721883122 1.453049960744677 L 1.3621492543868057 1.4638719244765175 Q 1.3548285142152665 1.4489121510825027 1.3436882574324895 1.4401590921817493 Q 1.3325480006497126 1.431406033280996 1.3199754251377214 1.427586516669758 Q 1.3074028496257302 1.4237670000585203 1.2949894206392072 1.4237670000585203 Q 1.2746186653792722 1.4237670000585203 1.2590223058833845 1.4318834728574008 Q 1.2434259463874968 1.439999945656281 1.2327631291811245 1.4535274003210816 Q 1.2221003119747522 1.4670548549858824 1.216689330108832 1.4837652401600478 Q 1.2112783482429117 1.5004756253342133 1.2112783482429117 1.5176634500847834 Q 1.2112783482429117 1.536442740090036 1.2176442092616415 1.5536305648406061 Q 1.2240100702803711 1.5708183895911765 1.2354686201140845 1.5840275512050406 Q 1.246927169947798 1.5972367128189047 1.2623643829182176 1.6050348925668485 Q 1.277801595888637 1.6128330723147923 1.2959442997920168 1.6128330723147923 Q 1.3086760218294762 1.6128330723147923 1.3220443299688085 1.6083769696016816 Q 1.3354126381081408 1.6039208668885707 1.3470303344673225 1.5946903684114127 Q 1.3586480308265043 1.5854598699342546 1.3656504779471068 1.5708183895911765 L 1.384111474901423 1.580367181119271 Q 1.3771090277808204 1.5972367128189047 1.3624675474377421 1.6090135557035545 Q 1.3478260670946638 1.6207903985882046 1.3298425097167523 1.6268379665559978 Q 1.311858952338841 1.632885534523791 1.2946711275882707 1.632885534523791 Q 1.2714357348699075 1.632885534523791 1.2520198587627818 1.6228593034192917 Q 1.2326039826556563 1.6128330723147923 1.2184399418889826 1.5961226871406269 Q 1.204275901122309 1.5794123019664614 1.1966368678998334 1.5585641071301217 Q 1.1889978346773578 1.537715912293782 1.1889978346773578 1.5163902778810374 M 1.4896142758802668 1.4049877100532677 L 1.5083935658855194 1.4049877100532677 L 1.6022900159117826 1.630975776218172 L 1.5787363301424826 1.630975776218172 L 1.549453369456326 1.5603147189102724 L 1.4479178862075874 1.5603147189102724 L 1.4189532185723672 1.630975776218172 L 1.3950812397521308 1.630975776218172 L 1.4896142758802668 1.4049877100532677 M 1.5443606806413421 1.5428086011087656 L 1.498844774357425 1.4310877402300595 L 1.4526922819716346 1.5428086011087656 L 1.5443606806413421 1.5428086011087656 M 1.635241428343205 1.630975776218172 L 1.635241428343205 1.4049877100532677 L 1.657521941908759 1.4049877100532677 L 1.657521941908759 1.6112416070601099 L 1.788022092792718 1.6112416070601099 L 1.788022092792718 1.630975776218172 L 1.635241428343205 1.630975776218172 M 1.7970985734898572 1.5163902778810374 Q 1.7970985734898572 1.495701229570166 1.8042601671359282 1.4758079138866356 Q 1.8114217607819991 1.4559145982031054 1.825108361972268 1.4395225060798764 Q 1.8387949631625369 1.4231304139566474 1.8588474253715352 1.4134224759030847 Q 1.8788998875805338 1.4037145378495217 1.9043633316554527 1.4037145378495217 Q 1.9346011714944187 1.4037145378495217 1.9560859524326315 1.417560285565259 Q 1.977570733370844 1.431406033280996 1.9877561110008117 1.453049960744677 L 1.9702499931993052 1.4638719244765175 Q 1.962929253027766 1.4489121510825027 1.951788996244989 1.4401590921817493 Q 1.940648739462212 1.431406033280996 1.9280761639502209 1.427586516669758 Q 1.9155035884382297 1.4237670000585203 1.9030901594517067 1.4237670000585203 Q 1.8827194041917716 1.4237670000585203 1.867123044695884 1.4318834728574008 Q 1.8515266851999963 1.439999945656281 1.840863867993624 1.4535274003210816 Q 1.8302010507872517 1.4670548549858824 1.8247900689213314 1.4837652401600478 Q 1.8193790870554112 1.5004756253342133 1.8193790870554112 1.5176634500847834 Q 1.8193790870554112 1.536442740090036 1.825744948074141 1.5536305648406061 Q 1.8321108090928706 1.5708183895911765 1.843569358926584 1.5840275512050406 Q 1.8550279087602974 1.5972367128189047 1.870465121730717 1.6050348925668485 Q 1.8859023347011366 1.6128330723147923 1.9040450386045162 1.6128330723147923 Q 1.9167767606419757 1.6128330723147923 1.930145068781308 1.6083769696016816 Q 1.9435133769206403 1.6039208668885707 1.955131073279822 1.5946903684114127 Q 1.9667487696390038 1.5854598699342546 1.9737512167596063 1.5708183895911765 L 1.9922122137139224 1.580367181119271 Q 1.98520976659332 1.5972367128189047 1.9705682862502416 1.6090135557035545 Q 1.9559268059071633 1.6207903985882046 1.9379432485292518 1.6268379665559978 Q 1.9199596911513406 1.632885534523791 1.9027718664007702 1.632885534523791 Q 1.879536473682407 1.632885534523791 1.8601205975752813 1.6228593034192917 Q 1.8407047214681558 1.6128330723147923 1.8265406807014821 1.5961226871406269 Q 1.8123766399348085 1.5794123019664614 1.8047376067123329 1.5585641071301217 Q 1.7970985734898572 1.537715912293782 1.7970985734898572 1.5163902778810374 M 2.122863274047324 1.6325672414728545 Q 2.0961266577686595 1.6325672414728545 2.0776656608143433 1.62301844994476 Q 2.059204663860027 1.6134696584166655 2.0483827001281867 1.597395859344373 Q 2.037560736396346 1.5813220602720803 2.032627194106831 1.5609513050121453 Q 2.0276936518173154 1.5405805497522103 2.0276936518173154 1.5189366222885294 L 2.0276936518173154 1.4049877100532677 L 2.049655872331933 1.4049877100532677 L 2.049655872331933 1.5189366222885294 Q 2.049655872331933 1.536442740090036 2.0533162424177025 1.5533122717896697 Q 2.056976612503472 1.5701818034893034 2.0652522318278206 1.5835501116286357 Q 2.073527851152169 1.5969184197679682 2.0875327453933745 1.604716599515912 Q 2.10153763963458 1.612514779263856 2.1225449809963877 1.612514779263856 Q 2.1441889084600687 1.612514779263856 2.1583529492267424 1.6043983064649756 Q 2.172516989993416 1.596281833666095 2.1806334627922963 1.5829135255267628 Q 2.1887499355911766 1.5695452173874305 2.192251159151478 1.552834832213265 Q 2.1957523827117793 1.5361244470390996 2.1957523827117793 1.5189366222885294 L 2.1957523827117793 1.4049877100532677 L 2.2180328962773332 1.4049877100532677 L 2.2180328962773332 1.5189366222885294 Q 2.2180328962773332 1.5415354289050198 2.2129402074623497 1.5622244772158913 Q 2.2078475186473656 1.5829135255267628 2.1965481153391204 1.5985098850226507 Q 2.1852487120308752 1.6141062445185383 2.1671060081274955 1.6233367429956964 Q 2.1489633042241163 1.6325672414728545 2.122863274047324 1.6325672414728545 M 2.2716668295254188 1.630975776218172 L 2.2716668295254188 1.4049877100532677 L 2.2939473430909727 1.4049877100532677 L 2.2939473430909727 1.6112416070601099 L 2.4244474939749314 1.6112416070601099 L 2.4244474939749314 1.630975776218172 L 2.2716668295254188 1.630975776218172 M 2.5277360756682814 1.4049877100532677 L 2.546515365673534 1.4049877100532677 L 2.640411815699797 1.630975776218172 L 2.616858129930497 1.630975776218172 L 2.5875751692443405 1.5603147189102724 L 2.4860396859956015 1.5603147189102724 L 2.4570750183603813 1.630975776218172 L 2.433203039540145 1.630975776218172 L 2.5277360756682814 1.4049877100532677 M 2.5824824804293565 1.5428086011087656 L 2.5369665741454392 1.4310877402300595 L 2.490814081759649 1.5428086011087656 L 2.5824824804293565 1.5428086011087656 M 2.8121411741709297 1.4247218792113299 L 2.731613032283999 1.4247218792113299 L 2.731613032283999 1.630975776218172 L 2.709332518718445 1.630975776218172 L 2.709332518718445 1.4247218792113299 L 2.628804376831514 1.4247218792113299 L 2.628804376831514 1.4049877100532677 L 2.8121411741709297 1.4049877100532677 L 2.8121411741709297 1.4247218792113299 M 2.998178799947442 1.6112416070601099 L 2.998178799947442 1.630975776218172 L 2.8463530146507385 1.630975776218172 L 2.8463530146507385 1.4049877100532677 L 2.9953141624890134 1.4049877100532677 L 2.9953141624890134 1.4247218792113299 L 2.8686335282162925 1.4247218792113299 L 2.8686335282162925 1.50620490025107 L 2.9790812168912524 1.50620490025107 L 2.9790812168912524 1.5249841902563226 L 2.8686335282162925 1.5249841902563226 L 2.8686335282162925 1.6112416070601099 L 2.998178799947442 1.6112416070601099 M 3.033034686522505 1.630975776218172 L 3.033034686522505 1.5997830572263965 L 3.0518139765277574 1.5997830572263965 L 3.0518139765277574 1.630975776218172 L 3.033034686522505 1.630975776218172 M 3.2739923173227363 1.6325672414728545 Q 3.2501203385025 1.6325672414728545 3.2307044623953747 1.62301844994476 Q 3.2112885862882488 1.6134696584166655 3.1972836920470433 1.5970775662934364 Q 3.1832787978058383 1.5806854741702074 3.1756397645833627 1.5601555723848042 Q 3.168000731360887 1.539625670599401 3.168000731360887 1.5179817431357199 Q 3.168000731360887 1.4953829365192295 3.175958057634299 1.4748530347338262 Q 3.1839153839077112 1.454323132948423 3.1983977177253213 1.4382493338761304 Q 3.2128800515429314 1.4221755348038378 3.232295927650057 1.4127858898012116 Q 3.2517118037571824 1.4033962447985853 3.2743106103736728 1.4033962447985853 Q 3.2981825891939094 1.4033962447985853 3.317598465301035 1.4132633293776165 Q 3.3370143414081603 1.4231304139566474 3.3508600891238975 1.4396816526053446 Q 3.3647058368396348 1.4562328912540419 3.3723448700621104 1.476603646513977 Q 3.379983903284586 1.496974401773912 3.379983903284586 1.5183000361866563 Q 3.379983903284586 1.5408988428031467 3.372026577011174 1.5614287445885502 Q 3.3640692507377614 1.5819586463739534 3.34974606344562 1.5980324454462458 Q 3.335422876153478 1.6141062445185383 3.316007000046352 1.6233367429956964 Q 3.2965911239392267 1.6325672414728545 3.2739923173227363 1.6325672414728545 M 3.190281244926441 1.5179817431357199 Q 3.190281244926441 1.536442740090036 3.196328812894234 1.553471418315138 Q 3.2023763808620274 1.5705000965402398 3.2135166376448043 1.5837092581541041 Q 3.2246568944275813 1.5969184197679682 3.2400941073980007 1.604716599515912 Q 3.25553132036842 1.612514779263856 3.2739923173227363 1.612514779263856 Q 3.293408193429862 1.612514779263856 3.3088454064002817 1.6043983064649756 Q 3.324282619370701 1.596281833666095 3.33526372962801 1.5827543790012946 Q 3.3462448398853186 1.569226924336494 3.351974114802175 1.5523573926368603 Q 3.357703389719032 1.5354878609372267 3.357703389719032 1.5179817431357199 Q 3.357703389719032 1.4995207461814037 3.3516558217512387 1.48265121448177 Q 3.3456082537834453 1.4657816827821364 3.3343088504752 1.452413374642804 Q 3.323009447166955 1.4390450665034717 3.3077313807220037 1.431406033280996 Q 3.2924533142770525 1.4237670000585203 3.2739923173227363 1.4237670000585203 Q 3.2548947342665473 1.4237670000585203 3.239457521296128 1.4317243263319326 Q 3.2240203083257084 1.4396816526053446 3.2130391980683997 1.4532091072701452 Q 3.202058087811091 1.4667365619349457 3.1961696663687658 1.4836060936345796 Q 3.190281244926441 1.5004756253342133 3.190281244926441 1.5179817431357199 M 3.4224685655912253 1.630975776218172 L 3.4224685655912253 1.4049877100532677 L 3.5179564808721704 1.4049877100532677 Q 3.5325979612152487 1.4049877100532677 3.5446930971508355 1.4110352780210609 Q 3.556788233086422 1.4170828459888543 3.5658595850381114 1.4274273701442899 Q 3.5749309369898015 1.4377718942997257 3.579864479279317 1.450344469811717 Q 3.584798021568832 1.462917045323708 3.584798021568832 1.4759670604121038 Q 3.584798021568832 1.4922000060098646 3.578591307075571 1.5065231933020065 Q 3.5723845925823094 1.5208463805941483 3.5610851892740643 1.5307134651731793 Q 3.549785785965819 1.5405805497522103 3.534507719520868 1.5437634802615752 L 3.5898907103838162 1.630975776218172 L 3.564745559359834 1.630975776218172 L 3.511590619853441 1.547582996872813 L 3.444749079156779 1.547582996872813 L 3.444749079156779 1.630975776218172 L 3.4224685655912253 1.630975776218172 M 3.444749079156779 1.5278488277147508 L 3.5185930669740437 1.5278488277147508 Q 3.531961375113376 1.5278488277147508 3.541828459692407 1.5205280875432117 Q 3.551695544271438 1.5132073473716727 3.5571065261373582 1.5012713579615544 Q 3.5625175080032783 1.4893353685514363 3.5625175080032783 1.4759670604121038 Q 3.5625175080032783 1.462280459221835 3.556310793510017 1.4506627628626534 Q 3.5501040790167555 1.4390450665034717 3.5397595548613197 1.4318834728574008 Q 3.5294150307058842 1.4247218792113299 3.5166833086684246 1.4247218792113299 L 3.444749079156779 1.4247218792113299 L 3.444749079156779 1.5278488277147508 M 3.7215097048584447 1.6325672414728545 Q 3.6989108982419543 1.6325672414728545 3.679495022134829 1.6228593034192917 Q 3.6600791460277033 1.6131513653657288 3.6457559587355615 1.5966001267170316 Q 3.6314327714434196 1.5800488880683345 3.6236345916954757 1.5596781328083995 Q 3.615836411947532 1.5393073775484645 3.615836411947532 1.5176634500847834 Q 3.615836411947532 1.4947463504173566 3.6236345916954757 1.4742164486319531 Q 3.6314327714434196 1.4536865468465499 3.645437665684625 1.4377718942997257 Q 3.65944255992583 1.4218572417529014 3.678540142982019 1.4126267432757433 Q 3.6976377260382085 1.4033962447985853 3.720236532654699 1.4033962447985853 Q 3.75365730300303 1.4033962447985853 3.7746646443648375 1.4170828459888543 Q 3.7956719857266457 1.430769447179123 3.806493949458486 1.4527316676937405 L 3.789306124707916 1.464190217527454 Q 3.7784841609760753 1.443182876165646 3.760341457072696 1.4333157915866148 Q 3.7421987531693164 1.4234487070075839 3.7199182396037624 1.4234487070075839 Q 3.70113894959851 1.4234487070075839 3.686020029679027 1.431406033280996 Q 3.6709011097595434 1.4393633595544082 3.6600791460277033 1.4527316676937405 Q 3.649257182295863 1.4660999758330728 3.643687053904474 1.4829695075327065 Q 3.638116925513086 1.4998390392323402 3.638116925513086 1.5179817431357199 Q 3.638116925513086 1.537079326191909 3.6444827865318152 1.554108004417011 Q 3.650848647550545 1.571136682642113 3.662625490435195 1.584345844255977 Q 3.674402333319845 1.5975550058698411 3.6898395462902647 1.6050348925668485 Q 3.705276759260684 1.612514779263856 3.7231011701131274 1.612514779263856 Q 3.7437902184239986 1.612514779263856 3.7622512153783148 1.60217025510842 Q 3.780712212332631 1.5918257309529844 3.797581744032265 1.5701818034893034 L 3.797581744032265 1.5937354892586033 Q 3.7654341458876797 1.6325672414728545 3.7215097048584447 1.6325672414728545 M 3.7940805204719634 1.537079326191909 L 3.7437902184239986 1.537079326191909 L 3.7437902184239986 1.5198915014413388 L 3.812859810477216 1.5198915014413388 L 3.812859810477216 1.630975776218172 L 3.7940805204719634 1.630975776218172 L 3.7940805204719634 1.537079326191909 M 3.9291970085102026 1.4049877100532677 L 3.947976298515455 1.4049877100532677 L 4.041872748541718 1.630975776218172 L 4.018319062772418 1.630975776218172 L 3.9890361020862617 1.5603147189102724 L 3.8875006188375227 1.5603147189102724 L 3.8585359512023025 1.630975776218172 L 3.8346639723820664 1.630975776218172 L 3.9291970085102026 1.4049877100532677 M 3.9839434132712777 1.5428086011087656 L 3.9384275069873604 1.4310877402300595 L 3.8922750146015703 1.5428086011087656 L 3.9839434132712777 1.5428086011087656 M 4.097104674538695 1.4460475136240742 L 4.097104674538695 1.630975776218172 L 4.074824160973141 1.630975776218172 L 4.074824160973141 1.4049877100532677 L 4.093285157927457 1.4049877100532677 L 4.241609719663859 1.5934171962076669 L 4.241609719663859 1.4053060031042042 L 4.263890233229413 1.4053060031042042 L 4.263890233229413 1.630975776218172 L 4.243201184918542 1.630975776218172 L 4.097104674538695 1.4460475136240742 M 4.321015132546901 1.630975776218172 L 4.321015132546901 1.4049877100532677 L 4.3432956461124546 1.4049877100532677 L 4.3432956461124546 1.630975776218172 L 4.321015132546901 1.630975776218172 M 4.381963744721903 1.6134696584166655 L 4.535699288324225 1.4247218792113299 L 4.384510089129395 1.4247218792113299 L 4.384510089129395 1.4049877100532677 L 4.561481025450081 1.4049877100532677 L 4.561481025450081 1.4224938278547745 L 4.409655240153377 1.6112416070601099 L 4.5611627323991435 1.6112416070601099 L 4.5611627323991435 1.630975776218172 L 4.381963744721903 1.630975776218172 L 4.381963744721903 1.6134696584166655 M 4.752943309747045 1.6112416070601099 L 4.752943309747045 1.630975776218172 L 4.601117524450342 1.630975776218172 L 4.601117524450342 1.4049877100532677 L 4.750078672288617 1.4049877100532677 L 4.750078672288617 1.4247218792113299 L 4.623398038015896 1.4247218792113299 L 4.623398038015896 1.50620490025107 L 4.7338457266908565 1.50620490025107 L 4.7338457266908565 1.5249841902563226 L 4.623398038015896 1.5249841902563226 L 4.623398038015896 1.6112416070601099 L 4.752943309747045 1.6112416070601099 M 4.7877991963221085 1.630975776218172 L 4.7877991963221085 1.5997830572263965 L 4.806578486327361 1.5997830572263965 L 4.806578486327361 1.630975776218172 L 4.7877991963221085 1.630975776218172" fill="#af2cff" fill-rule="nonzero"></path></g></g><defs><clipPath id="SvgjsClipPath173452"><path d=" M 0 -1.7821337552072831 h 2.7083297612735224 v 1.5321337552072831 h -2.7083297612735224 Z"></path></clipPath><clipPath id="a1dfcb9f5-2d7f-4c0d-8e6a-d84141c9cc8edec19da4-d1c9-4433-9ad0-35f82ed37a0d"><path d=" M 0 -0.24996822551784148 L 2.7083297612735224 -0.24996822551784148 L 2.7083297612735224 -1.7821337552072831 L 0 -1.7821337552072831 Z"></path></clipPath></defs></svg>